<svg viewBox="0 0 1440 1300" preserveAspectRatio="none" fill="none" xmlns="http://www.w3.org/2000/svg">
<g clip-path="url(#clip0_836_37100)">
<rect width="1440" height="1300" transform="matrix(-1 0 0 1 1440 0)" fill="url(#paint0_linear_836_37100)"/>
<g filter="url(#filter0_f_836_37100)">
<path d="M859.117 668.719C1057.48 668.719 931.495 303.094 1300.55 -30.6794L1471.16 -30.6794L1471.16 1059.79C1300.55 654.844 516.988 1207.64 683.882 990.412C848.455 776.206 652.747 668.719 859.117 668.719Z" fill="url(#paint1_linear_836_37100)"/>
</g>
<g filter="url(#filter1_f_836_37100)">
<path d="M692.305 915.809C756.324 1195.46 1050.54 1575.42 513.853 1467.81L-884 155.149L279.468 -435.376C517.176 -171.5 1032 16.5333 979.33 206.123C913.495 443.11 628.286 636.158 692.305 915.809Z" fill="url(#paint2_linear_836_37100)"/>
</g>
<g filter="url(#filter2_f_836_37100)">
<path d="M-137.551 289.69C-273.813 188.754 -255.645 -58.9999 -510 -58.9999L-510 1244L462 1244C362.075 1100.24 116.804 803.549 -64.8784 766.845C-291.981 720.965 -1.28968 390.627 -137.551 289.69Z" fill="url(#paint3_radial_836_37100)" fill-opacity="0.5"/>
</g>
</g>
<defs>
<filter id="filter0_f_836_37100" x="608.81" y="-82.5794" width="914.246" height="1194.27" filterUnits="userSpaceOnUse" color-interpolation-filters="sRGB">
<feFlood flood-opacity="0" result="BackgroundImageFix"/>
<feBlend mode="normal" in="SourceGraphic" in2="BackgroundImageFix" result="shape"/>
<feGaussianBlur stdDeviation="25.95" result="effect1_foregroundBlur_836_37100"/>
</filter>
<filter id="filter1_f_836_37100" x="-949.8" y="-501.176" width="1998.68" height="2053.48" filterUnits="userSpaceOnUse" color-interpolation-filters="sRGB">
<feFlood flood-opacity="0" result="BackgroundImageFix"/>
<feBlend mode="normal" in="SourceGraphic" in2="BackgroundImageFix" result="shape"/>
<feGaussianBlur stdDeviation="32.9" result="effect1_foregroundBlur_836_37100"/>
</filter>
<filter id="filter2_f_836_37100" x="-601.2" y="-150.2" width="1154.4" height="1485.4" filterUnits="userSpaceOnUse" color-interpolation-filters="sRGB">
<feFlood flood-opacity="0" result="BackgroundImageFix"/>
<feBlend mode="normal" in="SourceGraphic" in2="BackgroundImageFix" result="shape"/>
<feGaussianBlur stdDeviation="45.6" result="effect1_foregroundBlur_836_37100"/>
</filter>
<linearGradient id="paint0_linear_836_37100" x1="182.5" y1="253.941" x2="1092.43" y2="1684.17" gradientUnits="userSpaceOnUse">
<stop stop-color="#A0BBFF"/>
<stop offset="0.256709" stop-color="#DEEAFF"/>
<stop offset="0.422604" stop-color="#C4D7FF"/>
<stop offset="0.766496" stop-color="#C4D7FF"/>
<stop offset="0.9375" stop-color="#EDF3FF"/>
</linearGradient>
<linearGradient id="paint1_linear_836_37100" x1="669.903" y1="860.473" x2="1302.43" y2="-75.4641" gradientUnits="userSpaceOnUse">
<stop offset="0.0197878" stop-color="#A0BBFF"/>
<stop offset="0.45" stop-color="#DEEAFF"/>
<stop offset="0.718886" stop-color="#FFE388"/>
<stop offset="1" stop-color="#FFF2C6"/>
</linearGradient>
<linearGradient id="paint2_linear_836_37100" x1="1347" y1="861.623" x2="15.9398" y2="1611.66" gradientUnits="userSpaceOnUse">
<stop stop-color="#FFF2C6"/>
<stop offset="0.399959" stop-color="#FFD153"/>
<stop offset="1" stop-color="#F07801"/>
</linearGradient>
<radialGradient id="paint3_radial_836_37100" cx="0" cy="0" r="1" gradientUnits="userSpaceOnUse" gradientTransform="translate(-24 592.5) rotate(100.66) scale(662.942 871.583)">
<stop stop-color="#C4D7FF"/>
<stop offset="0.322917" stop-color="#C4D7FF"/>
<stop offset="0.734375" stop-color="#7591FF"/>
<stop offset="1" stop-color="#3D47EE"/>
</radialGradient>
<clipPath id="clip0_836_37100">
<rect width="1440" height="1300" fill="white" transform="matrix(-1 0 0 1 1440 0)"/>
</clipPath>
</defs>
</svg>
